<mxfile host="app.diagrams.net" modified="2023-07-20T16:21:26.408Z" agent="Mozilla/5.0 (Windows NT 10.0; Win64; x64; rv:109.0) Gecko/20100101 Firefox/115.0" version="21.6.3" etag="Ov2vTX_7jYR2EyktNX_D" type="github">
  <diagram name="Page-1" id="-B1nIGlkArFiaonvk3sD">
    <mxGraphModel>
      <root>
        <mxCell id="0" />
        <mxCell id="1" parent="0" />
      </root>
    </mxGraphModel>
  </diagram>
</mxfile>
